<?xml version="1.0" encoding="UTF-8" standalone="no"?>
<svg width="131px" height="132px" viewBox="0 0 131 132" version="1.1" xmlns="http://www.w3.org/2000/svg" xmlns:xlink="http://www.w3.org/1999/xlink" xmlns:sketch="http://www.bohemiancoding.com/sketch/ns">
    <!-- Generator: Sketch 3.3.2 (12043) - http://www.bohemiancoding.com/sketch -->
    <title>Group</title>
    <desc>Created with Sketch.</desc>
    <defs>
        <circle id="path-1" cx="64" cy="64" r="46"></circle>
    </defs>
    <g id="Page-1" stroke="none" stroke-width="1" fill="none" fill-rule="evenodd" sketch:type="MSPage">
        <g id="Group" sketch:type="MSLayerGroup" transform="translate(2.000000, 2.000000)">
            <ellipse id="Oval-1" stroke="#4A4A4A" stroke-width="4" fill="#C8EAF9" sketch:type="MSShapeGroup" transform="translate(63.500000, 64.000000) scale(1, -1) translate(-63.500000, -64.000000) " cx="63.5" cy="64" rx="63.5" ry="64"></ellipse>
            <circle id="Oval-1-Copy" stroke="#4A4A4A" stroke-width="5" sketch:type="MSShapeGroup" transform="translate(64.000000, 64.000000) scale(1, -1) translate(-64.000000, -64.000000) " cx="64" cy="64" r="47"></circle>
            <g transform="translate(7.000000, 6.000000)" fill="#4A4A4A" sketch:type="MSShapeGroup">
                <circle id="Oval-3-Copy" cx="18.6415929" cy="18.1504425" r="2.5"></circle>
                <circle id="Oval-3-Copy-2" cx="2.5" cy="58.5" r="2.5"></circle>
                <circle id="Oval-3-Copy-3" cx="18.6415929" cy="97.3230088" r="2.5"></circle>
                <circle id="Oval-3-Copy-4" cx="56.5" cy="113.464602" r="2.5"></circle>
                <circle id="Oval-3-Copy-5" cx="96.3230088" cy="97.3230088" r="2.5"></circle>
                <circle id="Oval-3-Copy-6" cx="111.460022" cy="58.5" r="2.5"></circle>
                <circle id="Oval-3-Copy-7" cx="96.3230088" cy="18.1504425" r="2.5"></circle>
                <circle id="Oval-3" cx="56.5" cy="2.5" r="2.5"></circle>
            </g>
            <mask id="mask-2" sketch:name="Mask" fill="white">
                <use xlink:href="#path-1"></use>
            </mask>
            <use id="Mask" fill="#F3FBFE" sketch:type="MSShapeGroup" transform="translate(64.000000, 64.000000) scale(1, -1) translate(-64.000000, -64.000000) " xlink:href="#path-1"></use>
            <circle id="Oval-1-Copy-2" fill="#EBF7FE" sketch:type="MSShapeGroup" mask="url(#mask-2)" cx="64" cy="64" r="47">
                <g transform="translate(64.000000, 64.000000) scale(1, -1) translate(-64.000000, -64.000000) "></g>
            </circle>
            <path d="M19.0898438,78.3007812 C27.8457031,77.9335938 31.3193359,61.0429688 31.3193359,61.0429688 C31.3193359,61.0429688 45.4375,99.3613292 63.3691406,61.0644531 C78.6542969,99.3613292 94.75,61.0644531 94.75,61.0644531 C94.75,61.0644531 98.4892578,77.9335938 109.139648,77.9335938 L116.430664,82.6767578 L96.8115234,113.504883 L45.5273438,118.116211 L17.2587891,98.8652344 L19.0898438,77.9335938" id="Path-1" stroke="#4A4A4A" stroke-width="4" fill="#00A9E8" sketch:type="MSShapeGroup" mask="url(#mask-2)"></path>
        </g>
    </g>
</svg>